<?xml version="1.0" standalone="no"?>
<!DOCTYPE svg PUBLIC "-//W3C//DTD SVG 20010904//EN"
 "http://www.w3.org/TR/2001/REC-SVG-20010904/DTD/svg10.dtd">
<svg version="1.0" xmlns="http://www.w3.org/2000/svg"
 width="736.000000pt" height="736.000000pt" viewBox="0 0 736.000000 736.000000"
 preserveAspectRatio="xMidYMid meet">

<g transform="translate(0.000000,736.000000) scale(0.100000,-0.100000)"
fill="#000000" stroke="none">
<path d="M2573 7053 c9 -2 23 -2 30 0 6 3 -1 5 -18 5 -16 0 -22 -2 -12 -5z"/>
<path d="M2450 7046 c0 -2 7 -6 15 -10 8 -3 15 -1 15 4 0 6 -7 10 -15 10 -8 0
-15 -2 -15 -4z"/>
<path d="M3085 7006 c10 -14 25 -26 34 -26 22 0 63 -38 56 -50 -4 -6 2 -7 11
-3 12 4 15 3 10 -5 -4 -7 -2 -12 3 -12 6 0 11 5 11 10 0 6 8 10 19 10 20 0 36
36 20 46 -5 3 -8 13 -7 22 2 14 -6 17 -42 19 -25 1 -65 5 -88 9 l-44 6 17 -26z"/>
<path d="M3270 7000 c0 -5 5 -10 11 -10 5 0 7 5 4 10 -3 6 -8 10 -11 10 -2 0
-4 -4 -4 -10z"/>
<path d="M2993 6993 c9 -2 25 -2 35 0 9 3 1 5 -18 5 -19 0 -27 -2 -17 -5z"/>
<path d="M3053 6973 c9 -2 23 -2 30 0 6 3 -1 5 -18 5 -16 0 -22 -2 -12 -5z"/>
<path d="M3120 6929 c0 -5 5 -7 10 -4 6 3 10 8 10 11 0 2 -4 4 -10 4 -5 0 -10
-5 -10 -11z"/>
<path d="M4408 6923 c7 -3 16 -2 19 1 4 3 -2 6 -13 5 -11 0 -14 -3 -6 -6z"/>
<path d="M4533 6913 c9 -2 23 -2 30 0 6 3 -1 5 -18 5 -16 0 -22 -2 -12 -5z"/>
<path d="M2450 6853 c4 -21 15 -56 24 -78 26 -59 35 -91 27 -103 -4 -7 -41 -2
-111 14 -58 13 -148 34 -200 45 -52 11 -102 22 -110 24 -8 3 -26 28 -40 56
-36 73 -50 82 -50 30 0 -22 5 -41 10 -41 6 0 10 -7 10 -15 0 -21 -96 -20 -217
2 -67 12 -97 13 -104 6 -17 -17 -3 -30 42 -37 23 -4 47 -10 53 -14 6 -3 43 -7
82 -8 39 0 100 -8 135 -17 35 -9 85 -19 112 -22 34 -5 47 -11 47 -23 0 -12 3
-13 12 -4 7 7 25 12 40 12 22 0 28 -5 29 -22 1 -19 2 -20 6 -5 4 14 10 17 26
12 12 -3 42 -8 65 -11 24 -2 54 -10 65 -16 12 -7 29 -12 38 -13 8 -1 36 -7 62
-14 25 -8 53 -11 62 -8 20 8 21 67 0 67 -8 0 -15 9 -15 19 0 11 -4 23 -10 26
-5 3 -10 14 -10 24 0 10 -6 24 -14 30 -7 6 -13 22 -13 35 0 23 -40 86 -54 86
-3 0 -3 -17 1 -37z"/>
<path d="M5320 6813 c-19 -25 -58 -71 -87 -102 -29 -31 -68 -77 -86 -103 -31
-47 -42 -53 -81 -49 -11 1 -17 -2 -13 -5 4 -4 2 -13 -4 -20 -6 -8 -8 -21 -5
-30 6 -17 35 -16 141 2 50 9 65 27 27 34 -46 9 -40 45 18 120 28 36 61 81 74
100 13 19 35 46 50 59 29 27 33 41 13 41 -8 0 -29 -21 -47 -47z"/>
<path d="M5277 6829 c7 -7 15 -10 18 -7 3 3 -2 9 -12 12 -14 6 -15 5 -6 -5z"/>
<path d="M1634 6696 c-4 -9 -4 -20 0 -23 60 -60 283 -299 305 -327 17 -22 38
-44 45 -50 8 -6 18 -23 21 -38 6 -24 3 -29 -32 -43 -21 -9 -60 -20 -87 -26
-26 -5 -88 -25 -136 -44 -48 -19 -93 -35 -100 -35 -6 0 -26 -7 -43 -15 -18 -7
-86 -32 -152 -55 -66 -22 -126 -47 -134 -55 -25 -25 12 -50 157 -105 75 -29
169 -67 207 -85 39 -19 87 -41 108 -49 50 -20 48 -44 -8 -98 -245 -233 -375
-377 -375 -416 0 -6 -4 -12 -10 -12 -12 0 -44 -60 -36 -67 7 -8 66 56 66 71 0
6 10 12 22 13 11 1 24 6 27 11 3 5 15 12 26 17 19 8 19 9 -2 12 l-23 4 28 35
c15 19 33 34 40 34 6 0 12 6 12 13 0 16 31 46 45 44 5 -1 11 7 13 18 4 22 114
135 150 154 12 7 20 16 18 20 -3 4 6 13 19 19 14 7 25 16 25 22 0 5 6 10 13
10 8 0 24 11 37 25 30 32 42 32 35 -2 l-5 -28 10 25 c7 14 12 30 13 35 1 6 15
17 31 26 39 22 44 56 10 69 -14 6 -38 10 -53 10 -16 0 -34 7 -41 15 -7 8 -20
15 -29 15 -14 1 -14 2 2 14 9 7 17 18 17 24 0 5 -8 9 -17 7 -10 -1 -33 4 -52
11 -38 16 -121 19 -121 4 0 -17 -132 -1 -168 20 -18 11 -42 20 -53 20 -10 0
-19 5 -19 10 0 6 -10 10 -22 11 -20 0 -18 2 7 11 17 5 44 16 60 23 40 18 101
40 153 55 23 7 42 17 42 22 0 4 24 8 53 8 37 0 48 3 37 10 -12 8 -12 10 5 10
11 0 45 9 75 20 62 23 74 24 65 10 -8 -13 1 -13 26 1 11 5 17 14 14 18 -7 12
79 24 113 16 24 -5 28 -2 30 17 3 33 -16 64 -78 128 -31 31 -62 70 -69 88 -7
18 -19 32 -25 32 -7 0 -25 18 -42 40 -16 22 -32 40 -36 40 -5 0 -8 6 -8 14 0
7 -9 16 -21 19 -12 3 -18 10 -15 16 4 6 -5 13 -19 17 -14 3 -25 9 -25 13 0 8
-53 65 -92 100 -25 21 -28 22 -34 7z m144 -809 c12 0 22 -3 22 -8 0 -5 -27 -8
-60 -8 -33 1 -60 5 -60 9 0 13 23 18 50 12 14 -3 35 -6 48 -5z"/>
<path d="M1785 6620 c3 -5 8 -10 11 -10 2 0 4 5 4 10 0 6 -5 10 -11 10 -5 0
-7 -4 -4 -10z"/>
<path d="M2408 6603 c7 -3 16 -2 19 1 4 3 -2 6 -13 5 -11 0 -14 -3 -6 -6z"/>
<path d="M5482 6570 c-40 -4 -76 -10 -79 -13 -8 -8 75 -17 137 -14 30 1 92 1
138 -1 65 -2 82 -5 82 -17 0 -10 9 -15 28 -14 l27 0 -25 12 c-22 10 -16 12 49
15 48 2 77 -1 81 -9 6 -8 9 -8 14 0 5 8 26 9 64 5 31 -4 76 -6 100 -6 52 0 53
-9 6 -32 -52 -24 -104 -66 -104 -82 0 -10 40 7 121 48 67 35 121 68 121 73 -1
16 -110 35 -207 36 -49 0 -178 2 -285 4 -107 2 -228 -1 -268 -5z"/>
<path d="M1890 6510 c0 -5 5 -10 10 -10 6 0 10 5 10 10 0 6 -4 10 -10 10 -5 0
-10 -4 -10 -10z"/>
<path d="M5993 6475 c-9 -25 2 -27 27 -5 l23 20 -22 0 c-12 0 -24 -7 -28 -15z"/>
<path d="M5780 6278 c-19 -13 -36 -26 -38 -30 -6 -13 -50 -9 -55 5 -4 10 -6
10 -6 0 -1 -7 -8 -13 -17 -13 -13 0 -14 -3 -4 -15 15 -18 7 -31 -33 -51 -18
-9 -39 -24 -48 -33 -35 -35 -70 -61 -82 -61 -15 0 -40 -37 -33 -49 3 -5 34
-19 68 -32 35 -12 66 -27 69 -32 4 -6 14 -7 23 -4 26 10 156 -39 156 -59 0 -6
12 -9 29 -6 20 3 63 -13 145 -52 80 -38 123 -53 133 -48 24 14 -114 98 -236
143 -58 22 -115 44 -126 48 -11 5 -47 14 -80 21 -109 22 -118 38 -52 92 23 20
60 52 82 72 22 20 53 44 68 52 15 8 37 24 48 35 10 10 24 19 29 19 6 0 10 5
10 10 0 15 -11 12 -50 -12z"/>
<path d="M2125 6170 c-3 -5 -1 -10 4 -10 6 0 11 5 11 10 0 6 -2 10 -4 10 -3 0
-8 -4 -11 -10z"/>
<path d="M5530 6150 c0 -5 7 -10 15 -10 8 0 15 5 15 10 0 6 -7 10 -15 10 -8 0
-15 -4 -15 -10z"/>
<path d="M5440 6069 c0 -5 5 -7 10 -4 6 3 10 8 10 11 0 2 -4 4 -10 4 -5 0 -10
-5 -10 -11z"/>
<path d="M1658 6033 c7 -3 16 -2 19 1 4 3 -2 6 -13 5 -11 0 -14 -3 -6 -6z"/>
<path d="M5735 6030 c-3 -5 1 -10 9 -10 9 0 16 5 16 10 0 6 -4 10 -9 10 -6 0
-13 -4 -16 -10z"/>
<path d="M5440 6010 c0 -5 5 -10 11 -10 5 0 7 5 4 10 -3 6 -8 10 -11 10 -2 0
-4 -4 -4 -10z"/>
<path d="M1474 5968 c-7 -11 18 -10 36 2 11 7 10 9 -8 7 -13 -1 -26 -5 -28 -9z"/>
<path d="M5808 5843 c6 -2 18 -2 25 0 6 3 1 5 -13 5 -14 0 -19 -2 -12 -5z"/>
<path d="M6114 5761 c0 -36 2 -40 30 -44 36 -5 46 0 26 14 -27 18 30 -1 67
-23 44 -26 37 -31 -22 -18 -26 6 -117 12 -202 14 -119 2 -157 6 -164 17 -6 10
-9 11 -9 1 0 -8 -13 -12 -37 -10 -105 6 -250 -3 -269 -16 -18 -14 -18 -16 16
-80 19 -36 38 -66 43 -66 4 0 7 -7 7 -14 0 -8 11 -27 25 -42 14 -15 23 -34 21
-41 -3 -7 -1 -13 4 -13 6 0 10 -9 10 -20 0 -11 5 -20 10 -20 6 0 10 -7 10 -16
0 -8 5 -12 10 -9 6 3 10 0 10 -8 0 -8 9 -22 20 -32 11 -10 20 -24 20 -31 0 -7
4 -14 8 -16 15 -6 52 -75 52 -97 0 -11 4 -21 10 -21 14 0 77 -128 85 -173 4
-20 13 -37 20 -37 11 0 35 -40 35 -60 0 -20 -26 -9 -53 21 -15 17 -27 43 -27
58 0 20 -3 22 -9 11 -6 -8 -7 -18 -4 -24 3 -5 1 -6 -5 -2 -7 4 -12 14 -12 21
0 8 -10 20 -22 26 -22 12 -22 12 -3 19 14 5 22 2 27 -9 6 -14 7 -14 7 0 1 24
-20 39 -56 39 -18 0 -33 5 -33 10 0 15 77 12 83 -2 4 -9 6 -10 6 -1 3 36 -60
55 -99 31 -26 -17 -50 3 -31 26 8 10 9 16 1 21 -6 3 -8 10 -6 14 3 4 -4 13
-16 20 -11 7 -17 8 -13 2 9 -15 -3 -14 -46 7 -21 9 -39 22 -39 28 0 6 -11 16
-25 22 -14 6 -25 16 -25 22 0 5 -7 10 -15 10 -8 0 -15 6 -15 14 0 8 -10 16
-22 18 -14 2 -23 9 -22 20 1 14 -4 16 -27 11 -22 -4 -29 -2 -29 11 0 9 -7 16
-16 16 -11 0 -15 -8 -12 -30 1 -17 -2 -34 -8 -38 -7 -4 -8 -15 -3 -27 7 -19 8
-19 8 3 1 25 21 21 21 -5 0 -8 9 -26 19 -39 14 -18 19 -36 16 -64 -2 -22 1
-40 6 -40 5 0 9 -11 9 -25 0 -14 4 -25 10 -25 19 0 23 -50 5 -76 -12 -19 -14
-29 -6 -37 8 -8 11 -4 11 13 1 24 1 24 15 6 8 -11 15 -34 15 -52 0 -17 8 -53
19 -80 23 -60 39 -137 40 -185 0 -20 7 -54 15 -75 12 -31 56 -221 56 -242 0
-14 -50 71 -61 104 -7 22 -22 52 -33 68 -11 17 -19 43 -18 60 2 23 0 27 -7 16
-8 -12 -11 -11 -17 5 -4 11 -13 27 -21 36 -8 10 -15 33 -16 53 -1 20 -6 36
-10 36 -19 0 -59 50 -59 74 0 16 -7 28 -19 31 -10 3 -21 16 -25 27 -3 12 -19
39 -35 61 -16 22 -26 43 -23 48 3 5 -2 9 -10 9 -9 0 -16 9 -16 20 0 11 -4 20
-9 20 -5 0 -12 9 -16 19 -3 11 -19 36 -35 56 -17 21 -30 47 -30 59 -1 27 -23
56 -43 56 -22 0 -51 -45 -44 -69 2 -10 0 -26 -5 -35 -6 -10 -5 -28 1 -49 16
-53 30 -165 36 -287 3 -63 8 -145 11 -182 4 -43 2 -68 -4 -68 -9 0 -24 23 -28
45 -4 23 -29 75 -36 75 -4 0 -8 15 -8 33 0 23 -8 41 -25 57 -15 14 -25 35 -25
51 0 15 -6 34 -13 41 -13 14 -57 117 -57 135 0 6 6 14 13 17 6 3 4 4 -7 3 -10
-1 -22 5 -25 13 -4 8 -15 30 -24 48 -9 19 -17 41 -17 51 0 9 -5 22 -12 29 -9
9 -9 12 2 12 9 0 6 6 -8 16 -26 18 -55 71 -47 84 3 6 0 10 -8 10 -15 0 -57 77
-57 104 0 9 -6 16 -12 16 -7 0 -26 27 -41 61 -16 33 -34 62 -42 65 -19 8 -27
44 -9 44 7 0 11 6 9 13 -3 6 -26 13 -50 15 -35 2 -45 -1 -45 -13 0 -8 -5 -15
-11 -15 -7 0 -10 -18 -9 -47 2 -27 2 -72 1 -102 -1 -53 -1 -53 -28 -46 -16 4
-64 11 -108 15 -44 5 -96 11 -115 14 -19 2 -83 7 -142 9 -59 3 -111 7 -115 10
-4 3 -83 8 -174 11 -91 4 -202 11 -246 16 -44 5 -200 8 -347 7 l-268 -2 7 40
c12 81 15 140 7 152 -14 21 -109 22 -96 1 5 -7 2 -9 -8 -5 -11 4 -18 -2 -22
-18 -4 -14 -18 -27 -36 -33 -16 -6 -30 -16 -30 -22 0 -8 -10 -9 -30 -5 -23 5
-30 3 -30 -9 0 -8 5 -18 10 -21 18 -11 11 -23 -21 -34 -25 -8 -30 -15 -26 -31
3 -12 -1 -23 -9 -28 -14 -8 -37 -45 -68 -109 -9 -17 -20 -34 -26 -38 -5 -3
-10 -15 -10 -26 0 -10 -4 -19 -8 -19 -5 0 -17 -17 -28 -37 -10 -21 -25 -42
-31 -46 -7 -4 -13 -13 -13 -20 0 -7 -16 -29 -35 -50 -19 -21 -35 -46 -35 -55
0 -10 -13 -33 -30 -52 -16 -19 -29 -41 -30 -47 0 -7 -3 -13 -7 -13 -9 0 -33
-48 -33 -66 0 -6 -6 -17 -14 -23 -8 -7 -18 -26 -21 -42 -4 -16 -15 -35 -24
-41 -18 -13 -31 -41 -40 -85 -1 -5 -6 0 -12 9 -7 12 -6 24 2 40 6 12 13 46 16
76 2 30 10 86 18 126 8 39 17 89 19 110 3 21 10 44 15 49 6 6 11 26 11 43 0
43 21 134 30 129 4 -2 5 7 2 20 -3 18 0 25 11 25 11 0 16 9 16 28 0 84 15 157
36 180 23 24 23 24 30 3 10 -33 25 -25 25 13 0 25 -7 39 -22 50 -24 17 -58 21
-58 8 0 -4 -13 -15 -28 -24 -15 -9 -34 -28 -42 -42 -7 -14 -19 -26 -25 -26 -7
0 -23 -10 -36 -22 -16 -15 -34 -22 -52 -20 -22 3 -27 -1 -28 -20 -1 -13 -1
-27 0 -32 4 -18 -11 -46 -25 -46 -8 0 -14 -4 -14 -9 0 -5 -19 -29 -43 -53 -55
-56 -89 -106 -82 -118 3 -6 -5 -14 -18 -19 -16 -6 -29 -23 -36 -44 -7 -19 -21
-43 -31 -52 -11 -10 -20 -24 -20 -31 0 -7 -14 -29 -31 -48 -17 -20 -28 -40
-24 -46 4 -6 1 -19 -7 -28 -8 -9 -21 -33 -28 -52 -18 -47 -32 -62 -19 -19 6
19 16 55 23 81 6 25 14 50 19 54 4 4 7 15 7 25 0 28 52 179 62 179 5 0 6 -11
2 -24 -4 -16 -1 -25 10 -29 9 -4 16 -3 16 2 0 4 12 21 26 36 23 25 25 30 12
53 l-13 26 -3 -32 c-6 -57 -32 -32 -32 31 0 17 15 62 32 101 36 78 59 109 66
88 2 -7 8 -9 13 -6 6 3 5 11 -2 20 -10 12 -8 18 9 30 12 8 22 20 22 26 0 20
42 68 60 68 16 0 18 7 16 37 -2 41 -21 53 -60 35 -56 -25 -90 -32 -97 -20 -6
9 -11 8 -23 -1 -12 -11 -14 -17 -5 -27 9 -11 8 -14 -6 -14 -10 0 -24 -8 -31
-17 -13 -17 -13 -17 -14 0 0 11 -8 17 -21 17 -18 0 -19 -2 -9 -15 16 -19 -3
-45 -31 -45 -11 0 -19 -4 -19 -9 0 -5 -18 -17 -40 -27 -22 -10 -40 -21 -40
-26 0 -4 -16 -8 -36 -8 -28 0 -35 -3 -30 -15 3 -8 1 -15 -4 -15 -5 0 -10 7
-12 15 -2 10 -7 12 -18 5 -13 -8 -13 -11 -1 -19 11 -7 9 -12 -10 -22 -13 -7
-26 -12 -29 -11 -3 1 -5 -2 -5 -8 0 -15 -38 -38 -54 -32 -8 3 -12 1 -8 -5 7
-11 -24 -40 -63 -61 -14 -7 -45 -31 -69 -52 -44 -40 -53 -44 -80 -41 -7 2 -10
-2 -6 -8 3 -6 0 -11 -7 -11 -14 0 -52 -39 -45 -46 6 -6 65 15 143 52 38 19 74
34 79 34 6 0 32 11 60 24 105 51 188 86 201 86 8 0 43 12 79 26 36 15 68 24
71 21 4 -3 -16 -72 -44 -154 -27 -81 -57 -177 -65 -213 -62 -254 -78 -333 -73
-346 4 -10 16 -14 38 -12 28 3 39 13 73 64 79 119 146 205 156 198 23 -14 30
-57 18 -113 -14 -64 -26 -84 -46 -77 -8 3 -25 -5 -39 -19 -21 -21 -25 -33 -22
-68 3 -39 1 -42 -24 -45 -28 -3 -48 -38 -34 -60 6 -11 -29 -89 -50 -110 -16
-15 -16 -21 -16 -142 0 -49 7 -112 17 -149 12 -46 15 -82 11 -122 -4 -36 -3
-60 4 -64 5 -3 10 -16 10 -28 0 -13 9 -40 20 -62 11 -22 20 -44 20 -51 0 -6 9
-23 20 -37 11 -14 20 -31 20 -39 0 -7 11 -34 25 -59 18 -35 22 -54 17 -75 -14
-51 -8 -88 21 -125 15 -20 27 -45 27 -56 0 -24 32 -54 83 -77 31 -14 37 -22
37 -46 0 -35 21 -59 90 -101 34 -21 50 -37 50 -51 0 -18 33 -58 49 -58 12 0
28 -49 20 -62 -13 -20 -11 -68 3 -68 8 0 9 -3 2 -10 -6 -6 -40 -13 -77 -17
-53 -5 -67 -9 -67 -22 0 -10 -5 -22 -11 -28 -7 -7 -3 -12 16 -17 l26 -7 -21
-29 c-12 -17 -17 -30 -11 -30 6 0 11 -5 11 -11 0 -6 -12 -8 -33 -4 -17 4 -81
8 -142 9 -115 1 -138 9 -197 68 -13 13 -34 18 -81 18 l-62 0 0 -38 c-1 -33 4
-43 37 -67 21 -16 38 -34 38 -39 1 -6 19 -24 40 -41 21 -16 39 -34 40 -40 1
-11 64 -45 84 -45 8 0 17 11 20 25 4 15 14 25 25 25 27 0 32 -10 16 -34 -22
-30 -18 -51 11 -71 l26 -17 -24 -16 c-12 -8 -24 -16 -26 -18 -2 -1 4 -14 13
-27 11 -17 32 -29 68 -38 48 -11 52 -11 65 10 17 25 40 27 68 6 19 -15 19 -15
-1 -30 -29 -23 -65 -30 -87 -16 -14 9 -18 8 -18 -1 0 -7 -16 -23 -36 -36 -40
-26 -43 -25 -104 38 -38 38 -119 68 -152 56 -39 -14 -39 -53 -1 -62 42 -10 56
-24 42 -40 -9 -11 -8 -18 1 -29 16 -19 48 -19 92 -1 34 15 78 12 78 -4 0 -16
35 -16 47 0 9 12 17 13 43 3 24 -9 38 -9 56 -1 18 9 28 8 36 0 7 -7 20 -12 29
-12 32 0 40 -55 9 -63 -12 -3 -18 -11 -15 -19 5 -11 -7 -15 -56 -16 -35 -1
-66 -7 -70 -13 -5 -8 -11 -5 -20 10 -8 11 -23 21 -35 21 -31 0 -94 -28 -134
-60 -20 -16 -52 -36 -72 -46 -32 -15 -36 -21 -31 -45 4 -23 -1 -34 -28 -59
-18 -16 -38 -30 -45 -30 -21 0 -37 -45 -25 -69 8 -14 8 -21 1 -21 -5 0 -10 -6
-10 -13 0 -8 -9 -22 -20 -32 -11 -10 -20 -14 -20 -9 0 5 -4 4 -8 -2 -10 -14
-76 -44 -98 -44 -10 0 -28 9 -40 21 -12 11 -30 20 -40 19 -32 -1 -62 0 -114 2
-65 2 -77 -10 -64 -61 6 -21 7 -48 2 -60 -6 -17 -2 -28 18 -48 28 -28 24 -38
-18 -48 -21 -5 -29 -2 -38 14 -6 12 -16 21 -23 21 -7 0 -43 16 -82 35 -38 19
-76 35 -82 35 -7 0 -13 4 -13 9 0 5 -9 11 -21 14 -16 4 -19 11 -14 26 3 12 3
22 -2 22 -42 7 -63 4 -95 -12 -20 -10 -39 -23 -43 -29 -9 -15 -35 -12 -35 4 0
17 -37 46 -58 46 -11 0 -13 -9 -8 -34 5 -28 3 -37 -15 -49 -29 -21 -21 -51 14
-55 38 -5 46 -30 16 -53 -31 -24 -36 -24 -43 6 -6 22 -12 25 -52 25 -38 0 -45
-3 -42 -17 2 -11 15 -20 33 -23 16 -3 28 -8 27 -12 -1 -5 -2 -18 -2 -29 0 -18
-5 -20 -27 -16 -21 4 -35 -4 -72 -39 l-46 -44 43 0 c39 0 43 -2 40 -22 -2 -19
-11 -24 -46 -29 -56 -7 -69 -20 -53 -55 16 -36 2 -44 -61 -39 -56 5 -69 11
-62 29 3 8 1 17 -5 21 -7 4 -11 -5 -11 -24 0 -17 -5 -42 -12 -56 -9 -19 -8
-31 1 -49 20 -37 11 -61 -24 -61 -24 0 -34 -7 -52 -40 -30 -55 -29 -73 5 -81
54 -12 60 -15 65 -34 3 -10 -1 -28 -9 -38 -16 -24 -6 -35 41 -46 16 -4 36 -13
43 -19 16 -13 31 -16 84 -22 21 -2 48 -7 60 -11 13 -4 46 -8 75 -9 37 -1 62
-8 90 -27 21 -14 45 -28 53 -30 8 -3 -18 -8 -58 -13 -61 -6 -76 -4 -91 9 -10
9 -22 16 -27 14 -5 -1 -20 4 -33 11 -18 10 -25 10 -31 1 -4 -7 -13 -9 -19 -6
-6 4 -16 -4 -23 -19 -32 -70 -177 -73 -253 -5 -11 9 -42 20 -69 24 -28 3 -53
11 -57 17 -3 6 -22 9 -40 8 -19 -2 -39 0 -46 4 -6 4 -16 0 -23 -8 -7 -8 -21
-15 -31 -15 -11 0 -19 -4 -19 -9 0 -12 44 -23 104 -26 26 -1 51 -7 55 -12 3
-5 21 -10 39 -11 19 -1 49 -9 68 -17 34 -14 36 -19 49 -97 3 -22 14 -42 24
-48 36 -19 36 -70 0 -70 -12 0 -20 -8 -20 -20 -1 -11 -2 -26 -3 -32 -2 -26
-35 -34 -109 -27 -39 4 -84 8 -99 8 -15 1 -41 14 -60 31 -18 16 -36 30 -40 30
-5 0 -8 -27 -8 -61 0 -53 3 -64 25 -81 27 -21 25 -38 -6 -38 -18 0 -19 -8 -19
-150 l0 -150 1050 0 1050 0 0 23 c0 29 25 53 63 62 19 5 34 19 45 41 11 23 23
34 37 34 12 0 36 7 54 16 34 17 47 12 53 -21 2 -10 18 -29 36 -41 18 -13 33
-26 33 -31 0 -4 6 -18 14 -29 16 -24 11 -34 -17 -34 -10 0 -18 -4 -18 -10 0
-13 819 -14 852 -1 85 33 137 44 151 32 8 -6 35 -14 59 -17 23 -3 47 -9 52
-15 6 -5 64 -9 129 -9 101 0 118 2 113 15 -4 12 3 13 42 8 26 -3 55 -10 64
-14 9 -5 458 -9 998 -9 l981 0 -15 22 c-9 12 -16 35 -16 51 0 37 -38 104 -89
156 -23 23 -39 46 -36 51 7 11 -18 61 -50 105 -29 38 -42 110 -24 131 9 11 9
18 1 26 -7 7 -12 26 -12 43 0 17 -9 51 -21 75 -12 24 -23 53 -24 64 -12 78
-20 103 -35 121 -51 57 -76 134 -50 150 15 9 12 39 -11 107 l-20 61 20 19 c12
10 21 27 21 38 0 10 5 22 10 25 6 4 7 28 4 61 -4 31 -2 71 4 92 31 109 33 123
21 138 -9 11 -9 20 -1 37 6 12 11 43 10 69 -1 32 4 54 16 66 12 14 18 44 22
101 5 71 3 85 -12 103 -18 19 -18 20 5 37 l23 17 -27 18 c-30 20 -27 50 9 78
19 16 20 18 4 30 -9 7 -20 33 -25 58 -12 59 -8 201 6 210 7 4 2 15 -14 30 -14
13 -25 31 -25 41 0 10 -5 21 -11 25 -6 3 -8 15 -6 26 4 13 -2 22 -19 30 -31
14 -82 112 -54 103 15 -5 16 0 8 42 -16 86 -16 87 20 98 37 11 40 20 12 35
-11 6 -20 16 -20 22 0 16 -51 68 -66 68 -19 0 -23 23 -7 42 13 14 12 17 -6 23
-23 7 -28 34 -10 52 9 9 8 16 -4 27 -18 19 -32 90 -20 108 4 7 8 40 8 73 1 54
4 63 33 92 24 23 32 40 32 66 0 19 7 40 16 47 19 17 44 75 44 106 0 13 4 33 9
46 18 48 40 125 51 184 16 80 26 95 45 70 18 -23 34 -12 19 12 -7 10 -24 17
-40 17 -24 0 -31 6 -38 30 -11 40 -8 117 6 126 6 4 25 2 42 -3 51 -16 59 -14
61 12 2 14 6 53 10 87 7 57 6 63 -18 87 -14 14 -33 26 -41 26 -11 0 -13 8 -9
36 4 26 2 40 -8 48 -8 6 -15 30 -16 54 -2 37 0 41 15 33 9 -5 29 -22 44 -39
14 -16 30 -31 35 -33 4 -2 15 -17 23 -33 26 -51 36 -41 29 26 -6 72 -50 320
-86 488 -32 152 -39 187 -48 238 l-8 43 52 -30 c29 -17 59 -31 68 -31 9 0 37
-12 62 -27 38 -22 250 -163 297 -198 25 -18 26 4 0 52 -32 61 -58 120 -92 208
-15 39 -44 100 -65 137 -20 37 -40 77 -44 90 -4 13 -13 30 -20 38 -7 8 -25 38
-40 65 -15 28 -37 64 -49 80 -35 49 -61 104 -53 112 5 4 40 8 80 10 40 1 64 0
55 -3 -19 -6 -25 -24 -9 -24 11 0 38 25 43 39 6 19 205 41 360 41 214 0 231 7
159 67 -27 23 -202 103 -225 103 -1 0 -2 -18 -2 -39z m-2514 -580 c69 -6 278
-21 465 -35 470 -35 477 -36 502 -51 34 -23 46 -77 41 -184 -7 -126 -40 -239
-73 -247 -13 -3 -97 4 -187 16 -90 11 -199 25 -243 31 -44 6 -85 15 -92 21 -8
6 -13 34 -13 69 0 51 -3 59 -19 59 -26 0 -38 -17 -48 -70 -8 -44 -9 -45 -48
-45 l-40 0 -1 53 c-2 52 -16 82 -39 82 -21 0 -35 -25 -42 -76 -7 -56 -15 -64
-52 -54 -25 6 -26 10 -24 68 1 57 0 61 -24 67 -34 8 -46 -5 -58 -68 -10 -49
-12 -52 -44 -55 -45 -5 -55 8 -52 66 2 55 -13 76 -51 70 -20 -3 -24 -11 -32
-70 l-8 -68 -72 -1 c-39 -1 -118 0 -176 1 -58 1 -116 -3 -129 -8 -21 -7 -17
-10 35 -20 32 -6 120 -16 194 -22 74 -6 138 -14 142 -18 4 -4 8 -36 10 -71 2
-48 7 -67 21 -75 31 -20 52 4 53 61 1 28 4 54 7 59 3 5 26 8 51 6 l45 -4 3
-66 c3 -64 4 -67 28 -67 22 0 25 6 35 58 11 63 27 80 63 66 19 -7 22 -15 22
-64 0 -51 2 -56 27 -66 35 -13 44 -3 51 62 l7 54 45 0 45 0 1 -58 c1 -31 5
-64 8 -73 7 -19 50 -15 53 6 1 8 5 41 8 73 l7 59 106 -6 c59 -3 175 -8 257
-12 83 -3 154 -9 158 -14 31 -29 -145 -213 -255 -267 -37 -18 -73 -33 -80 -33
-8 0 -19 -5 -24 -10 -20 -20 -215 -29 -419 -19 -470 22 -837 75 -1029 149 -27
10 -27 12 -13 28 15 16 15 19 -4 30 -15 10 -24 10 -34 2 -27 -23 -47 31 -52
144 -6 116 -1 145 22 126 21 -18 38 -3 24 21 -8 16 -7 25 5 38 33 36 6 44 -31
9 l-23 -21 1 34 c1 68 78 226 113 231 12 2 23 19 33 48 25 76 8 73 383 66 184
-3 391 -10 460 -15z m-1355 -601 c-4 -12 -9 -19 -12 -17 -3 3 -2 15 2 27 4 12
9 19 12 17 3 -3 2 -15 -2 -27z m2895 -110 c0 -5 -2 -10 -4 -10 -3 0 -8 5 -11
10 -3 6 -1 10 4 10 6 0 11 -4 11 -10z m-2633 -175 c52 -8 62 -20 26 -30 -17
-4 -29 -2 -31 4 -2 6 -11 11 -21 11 -9 0 -26 7 -37 16 -19 15 -19 15 1 10 11
-2 39 -8 62 -11z m440 -58 c1 -2 -3 -29 -9 -61 -8 -37 -19 -61 -31 -68 -10 -5
-20 -8 -22 -6 -3 3 -8 120 -6 142 1 7 59 1 68 -7z m1382 -66 c16 -11 7 -94
-14 -127 -7 -11 -18 -39 -24 -62 -12 -43 -37 -76 -51 -67 -4 2 -5 40 -3 82 3
43 5 87 6 98 0 24 43 85 60 85 7 0 18 -4 26 -9z m-1419 -521 c0 -5 -7 -10 -16
-10 -8 0 -12 5 -9 10 3 6 10 10 16 10 5 0 9 -4 9 -10z m-793 -6 c-3 -3 -12 -4
-19 -1 -8 3 -5 6 6 6 11 1 17 -2 13 -5z m51 -84 c-2 -30 -7 -40 -20 -40 -10 0
-18 6 -18 14 0 7 -7 19 -15 26 -20 17 -2 40 31 40 22 0 24 -4 22 -40z m1484
-85 c-2 -43 -8 -75 -14 -75 -6 0 -8 12 -4 31 3 17 6 51 6 75 0 24 3 44 8 44 4
0 6 -34 4 -75z m1448 -96 c11 -19 9 -20 -22 -17 -22 2 -34 9 -36 21 -5 26 44
23 58 -4z m-1705 -17 c-16 -4 -12 -8 20 -17 43 -13 52 -30 54 -102 1 -23 6
-43 13 -45 7 -3 9 -12 5 -22 -6 -14 -14 -17 -35 -13 -33 7 -41 2 -66 -38 -11
-17 -21 -24 -24 -17 -2 7 -8 10 -13 7 -4 -3 -15 10 -23 30 -8 19 -21 35 -28
36 -7 1 -2 4 12 8 22 6 25 13 28 65 2 32 -2 63 -8 71 -16 19 21 44 65 43 l20
0 -20 -6z m1651 -7 c9 -8 30 -15 49 -15 27 0 34 -5 39 -25 3 -13 15 -29 25
-35 25 -13 51 -39 51 -50 0 -5 -7 -15 -15 -24 -9 -8 -14 -20 -13 -27 2 -6 -3
-14 -11 -16 -9 -4 -11 0 -6 16 5 18 2 21 -19 21 -29 0 -33 -9 -13 -29 10 -11
10 -14 0 -18 -7 -3 -13 -10 -13 -17 0 -7 -10 -22 -23 -34 -27 -25 -56 -21
-104 15 -28 22 -31 27 -20 44 10 16 9 22 -3 32 -8 7 -21 24 -29 39 -13 26 -12
29 12 54 15 15 27 37 27 50 0 34 40 45 66 19z m-1416 -113 c0 -40 5 -73 12
-80 9 -9 9 -12 -1 -12 -24 0 -41 29 -41 69 0 22 -5 43 -11 46 -11 7 16 45 33
45 4 0 8 -31 8 -68z m-1210 -27 c10 -12 10 -15 -3 -15 -8 0 -17 7 -21 15 -3 8
-2 15 3 15 5 0 14 -7 21 -15z m365 -16 c19 -1 110 -122 122 -162 13 -42 39
-77 59 -77 27 0 46 32 40 69 -5 29 -2 39 16 52 15 12 22 31 26 68 4 48 6 51
32 51 26 0 27 -3 34 -64 3 -35 4 -70 0 -79 -3 -8 -1 -18 5 -22 6 -3 11 -26 11
-51 0 -46 9 -70 60 -164 17 -30 30 -59 30 -64 0 -5 8 -14 17 -21 9 -7 22 -30
29 -51 7 -22 12 -31 13 -21 1 23 13 22 29 -3 11 -18 9 -20 -16 -25 -15 -4 -46
-10 -69 -16 -53 -11 -49 -12 -67 6 -8 9 -36 19 -62 24 -25 5 -50 14 -54 21
-10 17 -156 79 -202 87 -21 3 -38 9 -38 14 0 5 -16 9 -36 9 -29 0 -34 3 -25
13 8 10 7 22 -2 47 -9 26 -9 34 0 37 7 2 10 10 7 18 -3 7 4 23 15 34 12 12 21
28 21 36 0 21 27 19 62 -6 16 -12 32 -18 36 -14 4 4 1 10 -5 12 -7 3 -13 12
-13 20 0 24 -60 123 -75 123 -7 0 -21 12 -30 28 -10 15 -26 34 -37 43 -17 13
-18 19 -8 36 12 18 16 19 39 7 14 -8 31 -14 36 -15z m918 -46 c-7 -2 -21 -2
-30 0 -10 3 -4 5 12 5 17 0 24 -2 18 -5z m-1008 -43 c11 -4 28 -11 38 -14 9
-3 17 -10 17 -16 0 -17 -31 -24 -51 -12 -10 7 -28 12 -39 12 -11 0 -20 5 -20
10 0 6 -22 10 -50 10 -27 0 -50 4 -50 9 0 18 113 19 155 1z m1239 -12 c8 13
59 -3 77 -24 9 -11 8 -14 -7 -14 -11 0 -28 -7 -38 -15 -18 -13 -19 -19 -8 -48
16 -46 15 -78 -5 -106 -15 -23 -15 -25 2 -37 26 -19 70 -17 86 3 19 22 71 43
108 43 16 0 48 9 72 20 45 20 179 29 179 12 0 -5 27 -6 60 -4 77 6 150 -5 150
-23 0 -16 22 -25 61 -25 16 0 29 -4 29 -8 0 -11 46 -32 70 -32 20 0 36 -17 26
-27 -3 -3 -29 1 -58 10 -65 19 -144 30 -158 22 -7 -4 -7 -12 0 -25 7 -13 6
-21 -4 -29 -7 -6 -16 -8 -19 -5 -3 4 -23 3 -43 0 -35 -7 -36 -9 -31 -42 5 -31
4 -33 -14 -23 -11 5 -34 9 -52 7 -25 -2 -35 -10 -46 -35 -9 -20 -22 -33 -33
-33 -10 0 -18 -4 -18 -9 0 -9 -57 -26 -62 -19 -6 6 -91 -74 -120 -114 -7 -9
-24 -19 -38 -21 -14 -2 -34 -8 -45 -12 -30 -13 -135 -95 -135 -106 0 -5 -18
-18 -40 -29 -22 -11 -54 -33 -72 -49 -60 -52 -144 -91 -196 -91 -108 2 -140 6
-155 19 -11 9 -17 10 -17 2 0 -14 -25 -14 -90 0 -31 6 -50 16 -50 24 0 20 -40
55 -70 62 -20 5 -70 45 -70 57 0 2 45 2 100 0 88 -4 100 -2 100 12 0 12 5 10
21 -10 11 -14 29 -26 40 -26 11 0 22 -7 25 -15 9 -21 28 -19 39 6 10 20 115
65 115 48 0 -7 71 11 80 21 22 25 66 49 81 45 10 -3 21 0 26 8 4 8 19 20 32
26 36 20 12 33 -65 34 -66 2 -70 4 -106 41 -21 21 -38 44 -38 51 0 15 81 100
110 115 11 6 20 17 20 25 0 8 13 27 29 42 19 19 35 53 51 107 24 83 44 111 91
128 33 11 36 20 14 42 -8 8 -15 21 -15 28 0 10 2 10 9 -1 6 -8 11 -9 15 -3z
m-1264 -139 c0 -5 11 -9 25 -9 14 0 25 -4 25 -10 0 -17 -77 -12 -84 6 -3 9 -4
20 -1 24 7 11 35 2 35 -11z m2229 -158 c45 -8 54 -31 12 -31 -34 0 -101 29
-101 43 0 5 12 6 28 2 15 -4 42 -11 61 -14z m-64 -56 l50 -24 -40 0 c-46 0
-127 30 -133 49 -6 18 60 5 123 -25z m-142 -95 c9 -11 17 -22 17 -25 0 -18
-97 11 -104 32 -9 23 67 16 87 -7z m-2621 -30 c-4 -27 -1 -30 21 -30 14 0 29
-5 32 -11 9 -14 7 -15 -40 -22 -22 -4 -34 -4 -27 -1 19 9 14 21 -12 28 -29 7
-42 53 -17 59 41 11 48 8 43 -23z m2343 21 c3 -5 1 -12 -5 -16 -5 -3 -10 1
-10 9 0 18 6 21 15 7z m81 -35 c18 -14 18 -15 1 -21 -25 -10 -67 3 -67 20 0
19 40 20 66 1z m-2336 -56 c0 -5 10 -10 23 -11 l22 0 -22 -11 c-28 -14 -29
-20 -3 -36 17 -11 26 -10 51 5 35 21 66 8 61 -25 -2 -15 8 -29 37 -49 22 -15
40 -31 41 -35 0 -12 -38 -10 -45 2 -3 6 -13 10 -22 10 -9 0 -24 7 -33 15 -10
9 -41 19 -69 24 -29 5 -57 13 -63 19 -12 12 -2 102 13 102 5 0 9 -4 9 -10z
m877 -36 c-3 -3 -12 -4 -19 -1 -8 3 -5 6 6 6 11 1 17 -2 13 -5z m65 -54 c27
-25 19 -35 -15 -19 -15 7 -23 17 -20 25 7 18 10 18 35 -6z m-858 -185 c-4 -8
-10 -12 -15 -9 -14 8 -10 24 6 24 9 0 12 -6 9 -15z m180 -17 c8 -13 18 -35 21
-50 4 -15 13 -29 21 -32 34 -13 8 -21 -66 -21 -89 0 -93 4 -68 72 11 31 28 45
28 23 0 -18 18 -10 23 10 7 26 23 25 41 -2z m636 -568 c12 -8 11 -10 -7 -10
-13 0 -23 5 -23 10 0 13 11 13 30 0z m111 -122 c35 -35 35 -38 5 -60 -21 -16
-25 -16 -37 -2 -9 11 -14 12 -20 3 -6 -10 -11 -10 -22 -1 -8 7 -28 11 -45 10
-39 -3 -75 28 -69 59 3 14 -2 24 -12 27 -9 2 26 2 77 -1 86 -5 95 -8 123 -35z
m-211 -8 c0 -5 -4 -10 -10 -10 -5 0 -10 5 -10 10 0 6 5 10 10 10 6 0 10 -4 10
-10z m-1870 -63 c10 -3 7 -6 -8 -6 -12 -1 -25 6 -28 14 -4 8 -11 12 -17 8 -6
-4 -7 -1 -3 6 6 9 12 9 24 -2 10 -8 24 -17 32 -20z m2512 -64 c-2 -7 -8 -13
-13 -13 -11 0 -12 54 -2 64 9 9 22 -34 15 -51z m-274 -9 c25 -13 27 -12 32 7
4 18 7 19 16 8 21 -26 44 -78 44 -98 0 -11 12 -28 26 -37 14 -10 22 -20 17
-23 -4 -3 -9 -11 -10 -18 -1 -6 -16 -31 -33 -56 -16 -25 -30 -52 -30 -61 0 -9
-9 -33 -20 -53 -25 -46 -25 -72 -2 -117 23 -46 101 -98 119 -80 16 16 17 64 1
64 -6 0 -8 3 -4 7 4 5 15 -1 23 -12 11 -14 17 -16 20 -7 3 6 19 12 37 12 22 0
43 10 65 29 30 27 55 34 156 46 11 1 39 6 62 10 37 6 44 5 49 -11 15 -48 29
-62 89 -88 75 -33 90 -48 98 -101 8 -49 2 -59 -45 -78 -21 -9 -38 -23 -38 -31
0 -9 3 -16 8 -16 4 0 13 -12 19 -27 15 -32 2 -53 -32 -53 -12 0 -35 -6 -51
-14 -22 -11 -49 -13 -109 -8 -56 5 -88 3 -106 -5 -14 -7 -60 -21 -103 -32 -42
-11 -84 -25 -92 -32 -8 -7 -43 -15 -77 -18 -60 -6 -63 -7 -80 -43 -9 -21 -24
-38 -32 -38 -8 0 -17 -11 -21 -25 -3 -14 -10 -25 -15 -25 -5 0 -9 -10 -9 -21
0 -19 4 -21 32 -15 17 3 39 12 47 20 35 30 89 37 263 35 95 -1 179 -7 186 -12
21 -16 14 -37 -13 -37 -69 0 -171 -58 -145 -84 5 -5 10 -20 10 -31 0 -12 11
-32 25 -45 14 -13 25 -29 25 -37 0 -7 6 -13 13 -13 8 0 19 -11 25 -25 8 -18
20 -25 39 -25 16 -1 39 -7 52 -14 l24 -13 -24 -17 c-16 -11 -34 -14 -59 -10
-47 8 -90 27 -90 39 0 18 -48 56 -107 86 -32 16 -63 36 -70 45 -14 20 -104 15
-173 -9 -25 -9 -57 -18 -72 -21 -15 -3 -33 -13 -42 -21 -8 -8 -30 -15 -50 -15
-19 0 -38 -5 -41 -10 -9 -15 -53 -12 -80 6 -33 22 -31 31 10 48 37 16 46 40
18 50 -15 6 -13 10 12 32 20 17 26 27 18 30 -18 8 -16 41 2 48 9 3 15 18 15
40 0 25 6 38 26 51 14 9 23 19 20 23 -4 3 4 16 16 29 21 23 21 23 3 57 -20 37
-51 56 -90 56 -14 0 -30 8 -36 19 -11 16 -14 17 -30 3 -23 -20 -37 -23 -130
-26 -78 -3 -149 -21 -149 -37 0 -5 -15 -15 -32 -22 -18 -8 -41 -24 -51 -35
-17 -19 -27 -20 -107 -16 -67 4 -91 2 -101 -9 -11 -12 -16 -8 -32 21 -14 27
-17 46 -12 80 6 37 17 56 71 111 60 62 77 91 54 91 -21 0 -9 16 23 29 34 15
69 46 61 54 -3 2 7 12 21 21 33 22 32 32 -5 40 -25 5 -30 10 -30 36 0 28 2 30
40 30 l40 0 0 -50 0 -50 39 0 c23 0 41 5 44 13 3 9 9 7 24 -6 19 -16 21 -16
38 3 l19 21 21 -28 c20 -24 29 -27 83 -27 l60 -1 7 42 c3 24 4 47 1 52 -10 16
5 41 25 41 12 0 19 7 19 19 0 25 -20 81 -30 81 -9 0 -21 91 -24 182 -1 54 -6
71 -21 82 -19 14 -19 15 -1 35 11 12 29 21 40 21 12 0 30 7 40 15 11 8 28 13
38 9 10 -3 25 -1 34 4 16 9 93 -13 152 -44z m-2229 -174 c55 -55 80 -98 49
-87 -7 2 -12 11 -10 21 4 24 -6 20 -35 -15 -22 -25 -31 -30 -56 -25 -22 5 -30
2 -33 -12 -4 -14 -16 -17 -69 -17 -68 0 -81 5 -71 30 5 13 10 14 27 4 25 -13
41 2 37 36 -3 27 10 45 27 39 18 -7 30 20 19 44 -4 9 -8 25 -9 35 -2 16 3 18
30 13 21 -4 54 -27 94 -66z m-649 -91 c0 -5 -7 -9 -15 -9 -15 0 -20 12 -9 23
8 8 24 -1 24 -14z m2590 -79 c0 -5 -7 -10 -15 -10 -8 0 -15 5 -15 10 0 6 7 10
15 10 8 0 15 -4 15 -10z m0 -110 c0 -5 -9 -10 -21 -10 -11 0 -17 5 -14 10 3 6
13 10 21 10 8 0 14 -4 14 -10z m-93 -16 c-3 -3 -12 -4 -19 -1 -8 3 -5 6 6 6
11 1 17 -2 13 -5z m-307 -53 c0 -15 -9 -20 -45 -23 -46 -3 -49 -1 -39 26 4 11
19 16 45 16 32 0 39 -4 39 -19z m-1725 -72 c-8 -12 -35 -12 -35 0 0 11 22 20
33 14 4 -2 5 -9 2 -14z m3410 -577 c17 -9 11 -11 -35 -11 -30 0 -72 3 -92 8
-26 6 -38 5 -38 -2 0 -6 -3 -8 -6 -4 -3 3 -3 11 1 18 9 14 142 8 170 -9z"/>
<path d="M2906 2882 c-3 -6 -1 -14 5 -17 15 -10 25 3 12 16 -7 7 -13 7 -17 1z"/>
<path d="M4450 2890 c0 -5 7 -10 15 -10 8 0 15 5 15 10 0 6 -7 10 -15 10 -8 0
-15 -4 -15 -10z"/>
<path d="M4400 2836 c0 -9 7 -16 16 -16 9 0 14 5 12 12 -6 18 -28 21 -28 4z"/>
<path d="M2919 859 l-23 -17 29 -14 c17 -7 33 -16 36 -21 8 -11 78 24 79 39 0
6 -22 16 -49 21 -41 8 -53 7 -72 -8z"/>
<path d="M3355 838 c-4 -13 -9 -30 -10 -39 -3 -24 -15 -39 -29 -39 -8 0 -19
-7 -26 -15 -10 -12 -9 -20 5 -41 9 -14 15 -27 13 -28 -2 -1 -15 -8 -30 -16
-47 -23 -30 -56 34 -66 65 -11 80 22 82 191 1 57 -2 70 -15 73 -10 2 -19 -6
-24 -20z"/>
<path d="M2940 730 c-13 -8 -12 -10 3 -10 9 0 17 5 17 10 0 12 -1 12 -20 0z"/>
<path d="M3080 693 c0 -22 2 -25 10 -13 13 20 13 40 0 40 -5 0 -10 -12 -10
-27z"/>
<path d="M3127 704 c-4 -4 -7 -11 -7 -16 0 -13 50 -6 53 7 2 12 -36 19 -46 9z"/>
<path d="M5520 5729 c0 -5 5 -7 10 -4 6 3 10 8 10 11 0 2 -4 4 -10 4 -5 0 -10
-5 -10 -11z"/>
<path d="M1920 5570 c0 -5 5 -10 10 -10 6 0 10 5 10 10 0 6 -4 10 -10 10 -5 0
-10 -4 -10 -10z"/>
<path d="M3033 5480 c0 -25 2 -35 4 -22 2 12 2 32 0 45 -2 12 -4 2 -4 -23z"/>
<path d="M3898 5403 c7 -3 16 -2 19 1 4 3 -2 6 -13 5 -11 0 -14 -3 -6 -6z"/>
<path d="M4057 5399 c7 -7 15 -10 18 -7 3 3 -2 9 -12 12 -14 6 -15 5 -6 -5z"/>
<path d="M2641 5334 c0 -11 3 -14 6 -6 3 7 2 16 -1 19 -3 4 -6 -2 -5 -13z"/>
<path d="M4766 5321 c-4 -5 4 -15 16 -22 22 -12 22 -11 8 7 -8 10 -15 20 -16
22 -1 2 -5 -1 -8 -7z"/>
<path d="M5681 5294 c0 -11 3 -14 6 -6 3 7 2 16 -1 19 -3 4 -6 -2 -5 -13z"/>
<path d="M1962 5228 c-17 -17 -15 -24 7 -24 12 0 17 6 13 18 -5 21 -5 21 -20
6z"/>
<path d="M5580 4979 c0 -4 7 -22 15 -40 13 -31 14 -32 15 -9 0 20 2 22 10 10
13 -19 13 -63 0 -76 -11 -11 2 -69 16 -69 5 0 10 43 12 97 l3 96 -36 -1 c-19
-1 -35 -4 -35 -8z"/>
<path d="M5590 4890 c0 -5 5 -10 11 -10 5 0 7 5 4 10 -3 6 -8 10 -11 10 -2 0
-4 -4 -4 -10z"/>
<path d="M5395 4870 c3 -5 8 -10 11 -10 2 0 4 5 4 10 0 6 -5 10 -11 10 -5 0
-7 -4 -4 -10z"/>
<path d="M5544 4639 c-3 -6 -1 -16 5 -22 8 -8 11 -5 11 11 0 24 -5 28 -16 11z"/>
<path d="M5601 4414 c0 -11 3 -14 6 -6 3 7 2 16 -1 19 -3 4 -6 -2 -5 -13z"/>
<path d="M1797 3383 c-4 -3 -7 -14 -7 -23 0 -10 -10 -24 -22 -33 -26 -17 -18
-31 24 -41 16 -4 32 -1 40 7 7 7 21 16 31 20 23 9 22 36 -5 58 -21 19 -49 25
-61 12z"/>
<path d="M1761 3171 c-24 -33 -26 -68 -7 -93 9 -13 32 -18 94 -21 75 -3 82 -2
82 15 0 10 -6 21 -14 24 -8 3 -20 19 -26 35 -15 34 -59 69 -88 69 -12 0 -30
-13 -41 -29z"/>
<path d="M1705 3000 c-8 -13 62 -43 81 -36 22 8 16 33 -8 40 -35 9 -66 7 -73
-4z"/>
<path d="M1822 2847 c-9 -11 -10 -17 -2 -22 15 -9 23 -1 18 21 -3 15 -4 16
-16 1z"/>
<path d="M450 2704 c0 -8 5 -12 10 -9 6 3 10 10 10 16 0 5 -4 9 -10 9 -5 0
-10 -7 -10 -16z"/>
<path d="M1453 2663 c-15 -6 -17 -43 -3 -43 14 0 12 -74 -2 -89 -30 -30 66
-56 113 -31 18 10 18 12 3 36 -13 19 -14 30 -7 47 13 28 -5 57 -35 57 -11 0
-22 7 -26 15 -5 15 -20 18 -43 8z"/>
<path d="M5450 2620 c0 -5 5 -10 10 -10 6 0 10 5 10 10 0 6 -4 10 -10 10 -5 0
-10 -4 -10 -10z"/>
<path d="M135 2600 c-3 -5 -4 -10 -1 -10 2 0 11 -3 20 -6 11 -4 16 -1 16 10 0
18 -25 22 -35 6z"/>
<path d="M1215 2600 c-8 -13 4 -32 16 -25 12 8 12 35 0 35 -6 0 -13 -4 -16
-10z"/>
<path d="M712 2554 c-19 -22 -27 -25 -62 -19 -35 6 -40 4 -40 -13 0 -25 17
-37 58 -41 30 -2 37 5 33 32 0 4 4 7 9 7 6 0 10 6 10 14 0 8 7 16 15 20 8 3
15 10 15 16 0 17 -14 11 -38 -16z"/>
<path d="M227 2523 c-9 -14 0 -77 11 -81 6 -2 9 13 8 37 -2 41 -10 59 -19 44z"/>
<path d="M1672 2510 c-7 -11 -19 -20 -28 -20 -19 0 -77 -29 -86 -44 -12 -18
-9 -23 14 -29 16 -5 31 2 51 21 15 15 33 27 40 28 7 0 23 2 36 2 13 1 21 5 18
9 -4 3 -2 12 4 19 6 7 8 18 4 24 -10 17 -39 11 -53 -10z"/>
<path d="M60 2510 c0 -13 11 -13 30 0 12 8 11 10 -7 10 -13 0 -23 -4 -23 -10z"/>
<path d="M324 2506 c-9 -23 0 -51 16 -51 10 0 16 12 18 33 2 24 -1 32 -13 32
-8 0 -18 -6 -21 -14z"/>
<path d="M822 2511 c-10 -6 -8 -10 10 -14 36 -10 48 -8 48 8 0 16 -36 20 -58
6z"/>
<path d="M1840 2491 c0 -14 29 -22 58 -14 24 6 25 7 7 14 -28 11 -65 11 -65 0z"/>
<path d="M0 2465 c0 -9 9 -15 25 -15 18 0 23 4 19 15 -4 8 -15 15 -25 15 -10
0 -19 -7 -19 -15z"/>
<path d="M1377 2473 c-24 -6 -18 -47 7 -51 23 -5 47 23 39 44 -5 14 -13 15
-46 7z"/>
<path d="M450 2460 c-8 -5 -12 -12 -9 -15 8 -8 39 5 39 16 0 11 -11 11 -30 -1z"/>
<path d="M268 2413 c-4 -19 11 -63 21 -63 3 0 12 9 19 20 9 15 10 26 2 40 -13
25 -37 26 -42 3z"/>
<path d="M369 2403 c-32 -80 -40 -138 -19 -138 20 0 72 101 68 133 -4 38 -35
41 -49 5z"/>
<path d="M557 2416 c-4 -10 0 -12 14 -9 22 6 26 23 5 23 -8 0 -16 -6 -19 -14z"/>
<path d="M0 2340 c0 -5 5 -10 10 -10 6 0 10 5 10 10 0 6 -4 10 -10 10 -5 0
-10 -4 -10 -10z"/>
<path d="M816 2328 c-9 -12 -16 -19 -16 -14 0 5 -9 1 -20 -9 -11 -10 -20 -22
-20 -28 0 -15 62 1 85 23 12 11 29 20 38 20 9 0 17 7 17 15 0 25 -66 19 -84
-7z"/>
<path d="M1520 2306 c0 -36 0 -36 43 -36 69 0 147 12 147 22 0 6 -11 7 -24 4
-16 -4 -32 1 -49 14 -14 11 -46 23 -71 26 l-46 7 0 -37z"/>
<path d="M950 2280 c-6 -11 -8 -25 -5 -30 3 -6 2 -10 -4 -10 -5 0 -13 5 -16
10 -9 15 -51 12 -64 -4 -17 -20 0 -27 37 -16 20 5 34 5 38 -1 7 -12 29 -6 29
7 1 5 6 19 13 30 11 21 7 34 -9 34 -5 0 -13 -9 -19 -20z"/>
<path d="M632 2278 c6 -18 28 -21 28 -4 0 9 -7 16 -16 16 -9 0 -14 -5 -12 -12z"/>
<path d="M1788 2263 c7 -3 16 -2 19 1 4 3 -2 6 -13 5 -11 0 -14 -3 -6 -6z"/>
<path d="M340 2205 c0 -39 22 -48 40 -16 13 26 3 51 -21 51 -15 0 -19 -7 -19
-35z"/>
<path d="M18 2223 c-10 -2 -18 -9 -18 -14 0 -12 13 -12 26 0 5 5 20 11 34 14
l25 4 -25 0 c-14 1 -33 -1 -42 -4z"/>
<path d="M534 2210 c-42 -9 -54 -18 -54 -40 0 -27 18 -34 48 -19 77 38 81 75
6 59z"/>
<path d="M2040 2206 c0 -9 7 -16 16 -16 17 0 14 22 -4 28 -7 2 -12 -3 -12 -12z"/>
<path d="M740 2185 c0 -8 5 -15 10 -15 6 0 10 7 10 15 0 8 -4 15 -10 15 -5 0
-10 -7 -10 -15z"/>
<path d="M840 2150 c0 -5 7 -10 15 -10 8 0 15 5 15 10 0 6 -7 10 -15 10 -8 0
-15 -4 -15 -10z"/>
<path d="M1111 2136 c-6 -7 -26 -17 -44 -21 l-32 -8 40 -7 c22 -4 48 -10 57
-14 13 -6 19 -1 24 19 9 38 -22 59 -45 31z"/>
<path d="M280 2080 c0 -24 6 -25 25 -6 12 12 12 15 -1 20 -23 9 -24 8 -24 -14z"/>
<path d="M87 2083 c-9 -16 -17 -63 -11 -63 15 0 64 43 64 56 0 15 -45 20 -53
7z"/>
<path d="M515 2060 c-3 -5 -1 -10 4 -10 6 0 11 5 11 10 0 6 -2 10 -4 10 -3 0
-8 -4 -11 -10z"/>
<path d="M1054 2035 c-4 -8 -12 -15 -19 -15 -13 0 -45 -31 -45 -44 0 -4 12 -6
27 -4 18 2 29 10 32 23 4 24 21 37 39 30 6 -2 12 2 12 10 0 20 -39 19 -46 0z"/>
<path d="M300 2017 c-16 -14 -24 -30 -22 -44 4 -31 28 -29 36 2 4 14 11 25 16
25 12 0 13 27 2 33 -4 3 -18 -5 -32 -16z"/>
<path d="M1192 2009 c2 -6 7 -10 11 -10 4 1 14 1 22 1 8 0 15 5 15 10 0 6 -12
10 -26 10 -14 0 -24 -5 -22 -11z"/>
<path d="M1170 1990 c0 -5 5 -10 10 -10 6 0 10 5 10 10 0 6 -4 10 -10 10 -5 0
-10 -4 -10 -10z"/>
<path d="M160 1944 c0 -11 5 -14 16 -10 9 3 22 6 30 6 8 0 14 5 14 10 0 6 -13
10 -30 10 -21 0 -30 -5 -30 -16z"/>
<path d="M516 1907 c-17 -13 -17 -14 -1 -30 28 -29 52 -15 40 23 -7 23 -15 25
-39 7z"/>
<path d="M293 1903 c-18 -7 -16 -33 1 -33 25 0 46 12 46 26 0 14 -23 17 -47 7z"/>
<path d="M570 1902 c0 -16 23 -30 63 -37 30 -6 37 -4 37 8 0 9 -13 18 -32 22
-18 4 -41 9 -50 11 -10 3 -18 1 -18 -4z"/>
<path d="M1310 1890 c0 -5 7 -10 16 -10 8 0 12 5 9 10 -3 6 -10 10 -16 10 -5
0 -9 -4 -9 -10z"/>
<path d="M97 1883 c-12 -11 -8 -20 11 -25 24 -7 65 9 57 22 -7 11 -58 14 -68
3z"/>
<path d="M204 1864 c-8 -30 5 -75 22 -81 20 -7 38 54 26 82 -15 33 -40 32 -48
-1z"/>
<path d="M0 1845 c0 -22 4 -34 10 -30 13 8 13 52 0 60 -6 4 -10 -8 -10 -30z"/>
<path d="M66 1831 c-3 -5 0 -14 8 -20 11 -9 15 -8 20 5 3 8 6 18 6 20 0 8 -29
4 -34 -5z"/>
<path d="M556 1804 c-9 -22 -8 -24 9 -24 8 0 15 6 15 14 0 22 -17 28 -24 10z"/>
<path d="M642 1809 c-35 -13 -22 -35 19 -31 37 4 78 32 47 32 -9 0 -22 2 -30
4 -7 3 -24 1 -36 -5z"/>
<path d="M998 1813 c-12 -3 -38 -49 -38 -68 0 -1 15 3 34 9 41 12 65 44 44 57
-7 5 -15 8 -18 8 -3 -1 -13 -3 -22 -6z"/>
<path d="M295 1780 c-18 -19 -17 -20 7 -20 32 0 56 25 32 34 -21 8 -18 9 -39
-14z"/>
<path d="M58 1783 c7 -3 16 -2 19 1 4 3 -2 6 -13 5 -11 0 -14 -3 -6 -6z"/>
<path d="M360 1780 c0 -5 11 -10 24 -10 14 0 28 5 31 10 4 6 -7 10 -24 10 -17
0 -31 -4 -31 -10z"/>
<path d="M0 1734 c0 -8 5 -12 10 -9 6 3 10 10 10 16 0 5 -4 9 -10 9 -5 0 -10
-7 -10 -16z"/>
<path d="M70 1719 c-64 -11 -81 -23 -57 -41 15 -12 16 -16 2 -42 -8 -15 -15
-29 -15 -30 0 0 11 -2 24 -2 14 -1 35 -11 47 -23 20 -18 25 -19 43 -8 32 22
30 36 -6 51 -18 8 -36 18 -40 22 -14 14 15 34 49 34 41 0 75 26 52 41 -16 10
-25 10 -99 -2z"/>
<path d="M233 1723 c-24 -9 -13 -24 15 -21 15 2 26 8 25 13 -2 12 -23 16 -40
8z"/>
<path d="M572 1718 c-37 -10 -35 -20 10 -42 58 -29 138 -17 138 21 0 22 -48
15 -64 -9 l-16 -22 0 21 c0 30 -27 42 -68 31z"/>
<path d="M308 1673 c-19 -5 -25 -43 -7 -43 23 0 48 21 43 35 -6 16 -7 16 -36
8z"/>
<path d="M560 1635 c0 -8 4 -15 9 -15 5 0 11 -9 14 -21 4 -15 12 -20 28 -17
37 5 33 26 -10 48 -34 17 -41 18 -41 5z"/>
<path d="M180 1612 c-16 -7 -21 -74 -8 -88 4 -3 20 9 36 27 23 26 28 38 21 51
-10 19 -23 21 -49 10z"/>
<path d="M411 1541 c-25 -19 -21 -44 5 -34 36 14 45 -54 14 -95 -18 -22 -19
-27 -6 -40 15 -15 52 -9 42 7 -7 11 10 44 47 93 39 50 31 81 -19 72 -22 -4
-34 -2 -34 5 0 16 -22 13 -49 -8z"/>
<path d="M46 1532 c-3 -5 -8 -33 -12 -63 -3 -30 -13 -64 -20 -76 -13 -21 -13
-23 6 -23 37 0 62 19 55 41 -4 11 -2 25 3 32 5 7 12 28 16 48 5 29 3 38 -10
43 -21 8 -32 8 -38 -2z"/>
<path d="M220 1485 c-10 -12 -10 -15 4 -15 9 0 16 7 16 15 0 8 -2 15 -4 15 -2
0 -9 -7 -16 -15z"/>
<path d="M345 1440 c3 -5 10 -10 16 -10 5 0 9 5 9 10 0 6 -7 10 -16 10 -8 0
-12 -4 -9 -10z"/>
<path d="M122 1398 c-17 -17 -15 -23 12 -36 20 -9 29 -8 48 8 26 21 24 25 -17
34 -19 4 -35 2 -43 -6z"/>
<path d="M255 1390 c3 -5 13 -10 21 -10 8 0 12 5 9 10 -3 6 -13 10 -21 10 -8
0 -12 -4 -9 -10z"/>
<path d="M4 1339 c-7 -12 12 -29 34 -29 18 0 15 -18 -6 -36 -15 -13 -18 -23
-12 -55 5 -29 4 -44 -6 -54 -17 -17 -18 -62 -1 -68 9 -3 9 -9 -1 -26 -10 -17
-10 -26 -2 -37 10 -12 15 -12 33 1 12 8 22 25 22 37 0 17 6 23 24 23 19 0 27
7 33 34 11 41 0 54 -41 53 -44 -1 -49 33 -9 69 16 16 36 29 43 29 7 0 18 7 25
15 6 8 15 14 18 13 4 0 18 0 31 1 20 1 21 3 11 16 -15 18 -33 19 -76 3 -27 -9
-35 -9 -49 5 -19 19 -60 23 -71 6z"/>
<path d="M295 1310 c16 -31 22 -34 49 -24 25 10 19 34 -8 34 -14 0 -28 5 -31
10 -15 24 -24 7 -10 -20z"/>
<path d="M168 1233 c7 -3 16 -2 19 1 4 3 -2 6 -13 5 -11 0 -14 -3 -6 -6z"/>
<path d="M200 1222 c0 -17 37 -42 54 -36 19 7 20 16 4 32 -14 14 -58 16 -58 4z"/>
<path d="M180 1063 c-19 -20 -29 -33 -22 -29 6 4 12 2 12 -3 0 -6 11 -11 25
-11 14 0 25 5 25 10 0 6 7 10 16 10 20 0 15 54 -6 57 -8 1 -31 -14 -50 -34z"/>
<path d="M100 1050 c-12 -8 -10 -10 8 -10 13 0 20 4 17 10 -7 12 -6 12 -25 0z"/>
<path d="M2 983 c2 -10 12 -19 23 -20 11 -2 14 0 8 3 -7 3 -13 12 -13 20 0 8
-5 14 -11 14 -6 0 -9 -8 -7 -17z"/>
<path d="M65 959 c-11 -4 -14 -8 -7 -8 7 -1 12 -9 10 -18 -4 -25 10 -43 28
-36 9 3 11 9 5 17 -5 6 -11 21 -13 32 -2 17 -7 20 -23 13z"/>
<path d="M173 963 c-21 -3 -30 -9 -27 -17 3 -8 15 -11 29 -8 14 2 36 -3 50
-12 23 -15 26 -15 31 -1 8 19 -13 46 -35 43 -9 0 -30 -3 -48 -5z"/>
<path d="M0 851 c0 -17 23 -29 55 -31 23 -1 8 23 -22 35 -30 13 -33 13 -33 -4z"/>
<path d="M0 587 c0 -60 2 -65 24 -71 14 -3 32 -3 40 0 16 6 21 -13 17 -58 -2
-13 5 -18 25 -18 l27 0 -6 59 c-5 46 -30 115 -51 138 0 0 -18 4 -38 8 l-38 7
0 -65z"/>
</g>
</svg>
